<?xml version="1.0" standalone="no"?>
<!DOCTYPE svg PUBLIC "-//W3C//DTD SVG 20010904//EN"
 "http://www.w3.org/TR/2001/REC-SVG-20010904/DTD/svg10.dtd">
<svg version="1.0" xmlns="http://www.w3.org/2000/svg"
 width="276.000000pt" height="237.000000pt" viewBox="0 0 276.000000 237.000000"
 preserveAspectRatio="xMidYMid meet">

<g transform="translate(0.000000,237.000000) scale(0.100000,-0.100000)"
fill="#000000" stroke="none">
<path d="M1240 2250 c-43 -5 -45 -6 -47 -40 -2 -19 -6 -58 -9 -87 l-5 -52 -50
-10 c-28 -6 -56 -11 -63 -11 -8 0 -33 29 -56 65 -23 36 -49 65 -58 65 -24 0
-154 -67 -192 -99 l-34 -28 36 -70 36 -71 -44 -41 c-25 -23 -50 -41 -57 -41
-6 0 -25 9 -42 20 -31 22 -92 50 -106 50 -20 0 -139 -191 -139 -224 0 -7 29
-33 65 -57 48 -33 64 -49 60 -61 -3 -10 -8 -27 -11 -37 -4 -13 1 -23 15 -31
18 -9 23 -8 30 12 6 15 5 25 -3 28 -6 3 -11 19 -11 37 0 28 2 30 16 17 18 -16
29 -18 29 -5 0 5 -29 31 -65 57 -36 26 -65 53 -64 58 1 17 73 128 89 139 11 6
33 -1 77 -27 34 -20 67 -36 73 -36 7 0 31 18 54 39 22 22 53 50 68 63 l28 23
-35 69 c-29 56 -33 72 -23 82 25 24 129 76 142 71 8 -3 28 -32 46 -64 19 -32
34 -60 36 -62 3 -4 151 28 182 40 20 8 22 15 22 72 0 90 10 100 99 98 40 0 77
-3 81 -6 5 -3 12 -41 16 -85 l7 -80 36 -5 c47 -8 114 -23 134 -31 12 -4 28 13
62 65 l45 72 71 -38 c40 -21 74 -44 76 -50 3 -7 -9 -43 -27 -80 l-31 -68 22
-15 c12 -8 45 -36 74 -62 28 -27 55 -48 59 -48 4 0 35 16 68 36 34 19 67 33
74 30 14 -6 93 -125 94 -142 0 -6 -31 -32 -69 -59 -76 -52 -75 -49 -36 -125
13 -26 19 -29 35 -20 21 11 26 35 10 45 -24 15 -7 44 48 80 82 55 85 60 62
104 -37 71 -120 181 -138 181 -10 0 -44 -16 -76 -35 -32 -19 -61 -35 -65 -35
-3 1 -28 20 -54 43 l-48 42 31 59 c16 33 30 67 30 77 0 28 -172 129 -219 129
-10 0 -35 -28 -60 -66 -35 -54 -47 -65 -65 -60 -11 2 -38 8 -59 11 -42 8 -43
11 -51 113 -2 35 -6 65 -8 67 -7 7 -172 11 -218 5z"/>
<path d="M1310 2075 c0 -18 5 -25 20 -25 15 0 20 7 20 25 0 18 -5 25 -20 25
-15 0 -20 -7 -20 -25z"/>
<path d="M907 1987 c-14 -10 -14 -14 -2 -31 15 -20 45 -16 45 7 0 25 -24 38
-43 24z"/>
<path d="M1705 1980 c-7 -23 1 -40 20 -40 16 0 29 35 20 50 -10 17 -33 11 -40
-10z"/>
<path d="M1214 1925 c-224 -41 -441 -206 -523 -397 -21 -50 -19 -58 15 -58 17
0 25 9 34 35 24 74 105 175 195 242 82 63 168 101 272 122 137 28 249 16 384
-39 138 -57 287 -203 330 -322 10 -29 19 -38 35 -38 13 0 25 4 28 9 12 20 -71
158 -137 227 -116 123 -241 191 -403 219 -101 18 -134 17 -230 0z"/>
<path d="M600 1711 c-14 -26 15 -58 36 -40 19 16 17 32 -6 46 -16 11 -21 10
-30 -6z"/>
<path d="M2017 1716 c-15 -12 -16 -18 -7 -35 13 -25 20 -26 44 -8 16 12 17 16
5 35 -16 26 -18 26 -42 8z"/>
<path d="M1403 1620 c-54 -11 -83 -27 -83 -45 0 -11 -13 -15 -50 -15 -27 0
-50 5 -50 10 0 16 -73 12 -97 -5 -12 -8 -23 -25 -25 -38 -4 -32 -65 -37 -88
-7 -27 35 -101 14 -128 -37 -16 -28 -16 -358 -1 -402 10 -29 14 -31 63 -31 50
0 53 2 69 35 13 27 17 63 17 140 l0 105 35 0 35 0 0 -134 c0 -144 5 -159 55
-172 41 -10 69 -1 76 26 4 14 7 90 8 169 1 128 3 142 17 137 9 -4 27 0 40 9
l23 15 3 -161 c3 -147 5 -162 23 -175 31 -23 61 -27 92 -12 l28 13 3 169 c2
168 3 168 24 162 13 -3 29 1 40 11 26 23 27 12 30 -177 l3 -165 28 -13 c32
-16 91 -1 101 24 3 9 6 98 6 199 l0 184 33 3 c31 3 32 4 35 56 l3 52 -35 0
c-32 0 -36 3 -36 25 0 24 -3 25 -53 25 -31 0 -61 -6 -73 -15 -10 -8 -40 -15
-66 -15 -47 0 -48 1 -48 30 0 17 -3 30 -7 29 -5 -1 -27 -5 -50 -9z"/>
<path d="M243 1469 c-24 -11 -57 -37 -75 -57 l-32 -37 80 -3 c113 -3 117 -5
144 -62 23 -49 23 -50 5 -89 -29 -64 -45 -73 -141 -80 l-86 -6 22 -28 c38 -48
96 -71 177 -72 64 0 76 3 115 30 23 17 52 45 63 63 l20 31 148 1 148 0 -3 97
-3 97 -105 -2 c-91 -3 -107 -5 -119 -22 -7 -11 -25 -20 -38 -20 -20 0 -24 4
-20 20 3 11 2 20 -2 20 -4 0 -15 15 -24 34 -43 90 -179 132 -274 85z m378
-179 c21 -12 25 -35 9 -45 -6 -4 -30 -8 -55 -11 -38 -3 -45 -1 -50 17 -10 30
-1 36 68 48 5 0 17 -4 28 -9z m149 -25 c0 -22 -4 -25 -40 -25 -32 0 -40 4 -40
18 0 26 9 32 47 32 29 0 33 -3 33 -25z"/>
<path d="M2213 1460 c-32 -18 -59 -43 -69 -63 -9 -17 -22 -35 -28 -39 -6 -4
-86 -8 -178 -8 l-168 0 0 -95 0 -95 179 0 c168 0 180 -1 186 -19 9 -31 80 -89
122 -100 88 -25 158 -7 222 57 114 115 84 294 -62 367 -72 35 -136 34 -204 -5z
m132 -80 c3 -5 17 -10 30 -10 16 0 31 -10 42 -27 10 -16 21 -30 24 -33 15 -11
4 -87 -18 -122 -26 -42 -94 -71 -115 -50 -7 7 -22 12 -35 12 -13 0 -23 6 -23
13 0 7 -8 24 -17 37 -27 39 -26 99 3 138 14 17 34 32 44 32 10 0 22 5 25 10 3
6 12 10 20 10 8 0 17 -4 20 -10z m-352 -102 c10 -30 -6 -38 -78 -38 -74 0 -92
8 -81 35 7 20 152 22 159 3z m147 -13 c0 -24 -4 -27 -35 -27 -45 0 -55 3 -55
20 0 27 9 32 52 32 34 0 38 -3 38 -25z"/>
<path d="M1747 1033 c-33 -74 -138 -107 -208 -66 -27 16 -31 16 -58 0 -35 -21
-87 -21 -121 -2 -36 21 -40 19 -40 -20 0 -43 32 -68 76 -59 25 5 32 2 42 -20
14 -32 56 -36 72 -6 14 27 34 25 48 -4 13 -30 45 -25 78 13 20 24 22 24 38 8
20 -20 22 -20 45 -7 10 5 21 23 24 40 6 25 11 30 36 30 35 0 61 31 61 71 0 21
-8 30 -34 43 -19 9 -36 16 -38 16 -2 0 -12 -17 -21 -37z"/>
<path d="M697 1053 c-23 -6 -18 -30 26 -122 38 -80 153 -199 242 -253 199
-120 465 -129 680 -23 146 72 269 202 320 338 19 52 19 52 -11 61 -17 5 -23
-1 -38 -45 -24 -65 -103 -171 -175 -232 -218 -186 -564 -196 -800 -23 -78 57
-149 146 -190 240 -17 36 -31 65 -33 65 -2 -1 -11 -3 -21 -6z m32 -55 l11 -33
-20 24 c-21 25 -26 41 -11 41 5 0 14 -15 20 -32z m156 -218 c10 -11 16 -20 13
-20 -3 0 -13 9 -23 20 -10 11 -16 20 -13 20 3 0 13 -9 23 -20z"/>
<path d="M2067 974 c-16 -31 -27 -57 -25 -59 2 -1 21 -14 43 -29 22 -14 50
-33 63 -42 31 -23 39 -11 13 18 -12 12 -17 24 -12 26 6 2 -1 14 -16 26 -24 21
-25 25 -14 59 7 20 10 41 6 47 -14 22 -32 7 -58 -46z"/>
<path d="M443 859 c-20 -12 -33 -29 -33 -41 0 -18 56 -128 65 -128 2 0 3 43 3
95 -1 52 -2 95 -2 95 -1 0 -16 -10 -33 -21z"/>
<path d="M615 820 c-17 -19 -17 -22 -2 -37 13 -13 19 -14 31 -3 19 15 20 21 3
44 -12 16 -14 16 -32 -4z"/>
<path d="M1999 814 c-11 -14 -10 -18 6 -30 25 -19 32 -18 45 6 8 15 6 21 -9
30 -25 13 -26 13 -42 -6z"/>
<path d="M635 689 c-32 -22 -65 -37 -72 -35 -19 8 -16 -11 3 -22 12 -7 13 -11
5 -16 -7 -5 -20 3 -32 18 -30 38 -43 32 -17 -9 13 -19 28 -35 34 -35 7 0 42
18 78 40 36 22 69 40 73 40 5 -1 27 -18 50 -39 l43 -38 -30 -58 c-40 -78 -39
-97 8 -128 59 -39 159 -87 181 -87 13 0 32 20 57 62 21 35 42 66 47 69 8 6
103 -14 113 -23 2 -2 7 -40 11 -83 8 -78 9 -80 38 -86 48 -11 191 -10 219 1
23 8 26 15 26 59 0 89 8 110 49 121 64 18 73 14 116 -53 22 -34 48 -64 59 -65
10 -2 37 4 60 14 49 21 176 101 176 110 0 4 -16 38 -35 76 l-35 68 36 33 c55
48 61 50 92 29 33 -24 108 -62 120 -62 12 0 73 92 66 99 -2 3 -10 -1 -16 -7
-17 -17 -28 -15 -22 6 3 9 -4 5 -16 -10 -12 -16 -26 -28 -31 -28 -6 0 -37 18
-69 40 -32 22 -62 40 -65 40 -11 0 -140 -112 -143 -124 -1 -7 11 -41 27 -76
22 -50 27 -68 18 -76 -12 -12 -141 -84 -150 -84 -3 0 -24 32 -48 71 -38 63
-45 70 -68 66 -170 -32 -161 -24 -161 -127 0 -31 -5 -61 -12 -68 -7 -7 -43
-12 -90 -12 -91 0 -98 6 -98 97 0 32 -4 63 -8 69 -6 10 -147 44 -181 44 -6 0
-15 -8 -19 -18 -13 -34 -67 -112 -77 -112 -13 0 -127 59 -142 74 -8 8 -3 28
23 80 19 38 34 72 34 75 0 3 -22 21 -50 40 -27 19 -57 44 -65 57 -21 32 -40
29 -110 -17z m85 6 c0 -10 -10 -15 -32 -15 -30 0 -31 1 -12 15 25 19 44 19 44
0z m-90 -35 c-8 -5 -19 -10 -25 -10 -5 0 -3 5 5 10 8 5 20 10 25 10 6 0 3 -5
-5 -10z m1480 -40 c0 -5 -2 -10 -4 -10 -3 0 -8 5 -11 10 -3 6 -1 10 4 10 6 0
11 -4 11 -10z"/>
<path d="M915 540 c-7 -23 1 -40 20 -40 16 0 29 35 20 50 -10 17 -33 11 -40
-10z"/>
<path d="M1707 553 c-8 -14 12 -53 27 -53 20 0 29 16 21 40 -6 19 -39 28 -48
13z"/>
<path d="M1310 435 c0 -18 5 -25 20 -25 15 0 20 7 20 25 0 18 -5 25 -20 25
-15 0 -20 -7 -20 -25z"/>
</g>
</svg>
